<svg xmlns="http://www.w3.org/2000/svg" version="1.1" xmlns:xlink="http://www.w3.org/1999/xlink" xmlns:svgjs="http://svgjs.com/svgjs" width="1440" height="560" preserveAspectRatio="none" viewBox="0 0 1440 560"><g mask="url(&quot;#SvgjsMask1002&quot;)" fill="none"><rect width="1440" height="560" x="0" y="0" fill="#1e3266"></rect><path d="M1560 560L0 560 L0 362.4Q17.51 307.91, 72 325.43Q156.22 289.65, 192 373.88Q221.01 330.89, 264 359.9Q298.88 274.77, 384 309.65Q458.72 264.37, 504 339.08Q542.94 258.02, 624 296.96Q692.86 245.81, 744 314.67Q792.25 290.92, 816 339.16Q852.91 256.08, 936 292.99Q981.7 266.69, 1008 312.39Q1100.68 285.07, 1128 377.76Q1167.39 297.15, 1248 336.54Q1294.82 311.36, 1320 358.17Q1345.59 263.75, 1440 289.34Q1519.97 249.31, 1560 329.29z" fill="#182f5d"></path><path d="M1488 560L0 560 L0 436.14Q22.84 338.98, 120 361.81Q186.68 308.49, 240 375.17Q291.58 354.75, 312 406.34Q324.07 346.41, 384 358.48Q454.72 309.2, 504 379.92Q591.42 347.35, 624 434.77Q672.27 363.04, 744 411.31Q786.59 381.89, 816 424.48Q835.32 371.8, 888 391.12Q910.12 341.24, 960 363.36Q1012.04 343.4, 1032 395.45Q1092.49 383.94, 1104 444.44Q1128.9 349.34, 1224 374.24Q1254.11 332.35, 1296 362.45Q1345.5 339.95, 1368 389.45Q1434.58 336.03, 1488 402.61z" fill="#25467d"></path><path d="M1512 560L0 560 L0 475Q47.92 450.92, 72 498.84Q102.65 457.49, 144 488.13Q168.91 441.04, 216 465.96Q240.03 417.99, 288 442.01Q316.51 398.52, 360 427.03Q412.34 407.37, 432 459.7Q462.44 418.14, 504 448.58Q561.7 434.28, 576 491.98Q580.17 424.15, 648 428.32Q680.26 388.58, 720 420.84Q789.5 418.34, 792 487.84Q825.32 401.16, 912 434.49Q953.25 403.74, 984 444.98Q1041.73 430.72, 1056 488.45Q1105.32 465.77, 1128 515.09Q1157.02 424.12, 1248 453.14Q1290.39 423.53, 1320 465.93Q1366.47 392.4, 1440 438.88Q1501.29 428.17, 1512 489.46z" fill="rgba(89, 154, 212, 1)"></path><path d="M1488 560L0 560 L0 572.73Q62.19 514.92, 120 577.12Q137.46 522.58, 192 540.03Q237.61 513.64, 264 559.25Q332.2 507.45, 384 575.66Q385.67 505.33, 456 506.99Q486.03 465.02, 528 495.05Q576.44 471.5, 600 519.94Q652.77 452.71, 720 505.48Q811.87 477.35, 840 569.22Q855.62 512.84, 912 528.45Q954.11 450.56, 1032 492.67Q1080.29 468.96, 1104 517.25Q1177.39 470.64, 1224 544.03Q1261.81 461.84, 1344 499.64Q1385.53 469.17, 1416 510.7Q1458.75 481.45, 1488 524.2z" fill="white"></path></g><defs><mask id="SvgjsMask1002"><rect width="1440" height="560" fill="#ffffff"></rect></mask></defs></svg>