<svg id="visual" viewBox="0 0 900 600" width="900" height="600" xmlns="http://www.w3.org/2000/svg" xmlns:xlink="http://www.w3.org/1999/xlink" version="1.1"><path d="M0 133L13.7 144C27.3 155 54.7 177 82 198C109.3 219 136.7 239 163.8 247C191 255 218 251 245.2 225C272.3 199 299.7 151 327 159C354.3 167 381.7 231 409 240C436.3 249 463.7 203 491 180C518.3 157 545.7 157 573 165C600.3 173 627.7 189 654.8 211C682 233 709 261 736.2 258C763.3 255 790.7 221 818 201C845.3 181 872.7 175 886.3 172L900 169L900 0L886.3 0C872.7 0 845.3 0 818 0C790.7 0 763.3 0 736.2 0C709 0 682 0 654.8 0C627.7 0 600.3 0 573 0C545.7 0 518.3 0 491 0C463.7 0 436.3 0 409 0C381.7 0 354.3 0 327 0C299.7 0 272.3 0 245.2 0C218 0 191 0 163.8 0C136.7 0 109.3 0 82 0C54.7 0 27.3 0 13.7 0L0 0Z" fill="#6198ff"></path><path d="M0 169L13.7 187C27.3 205 54.7 241 82 264C109.3 287 136.7 297 163.8 302C191 307 218 307 245.2 290C272.3 273 299.7 239 327 243C354.3 247 381.7 289 409 298C436.3 307 463.7 283 491 271C518.3 259 545.7 259 573 257C600.3 255 627.7 251 654.8 265C682 279 709 311 736.2 310C763.3 309 790.7 275 818 258C845.3 241 872.7 241 886.3 241L900 241L900 167L886.3 170C872.7 173 845.3 179 818 199C790.7 219 763.3 253 736.2 256C709 259 682 231 654.8 209C627.7 187 600.3 171 573 163C545.7 155 518.3 155 491 178C463.7 201 436.3 247 409 238C381.7 229 354.3 165 327 157C299.7 149 272.3 197 245.2 223C218 249 191 253 163.8 245C136.7 237 109.3 217 82 196C54.7 175 27.3 153 13.7 142L0 131Z" fill="#3c80ff"></path><path d="M0 397L13.7 400C27.3 403 54.7 409 82 410C109.3 411 136.7 407 163.8 407C191 407 218 411 245.2 411C272.3 411 299.7 407 327 409C354.3 411 381.7 419 409 433C436.3 447 463.7 467 491 464C518.3 461 545.7 435 573 414C600.3 393 627.7 377 654.8 382C682 387 709 413 736.2 414C763.3 415 790.7 391 818 380C845.3 369 872.7 371 886.3 372L900 373L900 239L886.3 239C872.7 239 845.3 239 818 256C790.7 273 763.3 307 736.2 308C709 309 682 277 654.8 263C627.7 249 600.3 253 573 255C545.7 257 518.3 257 491 269C463.7 281 436.3 305 409 296C381.7 287 354.3 245 327 241C299.7 237 272.3 271 245.2 288C218 305 191 305 163.8 300C136.7 295 109.3 285 82 262C54.7 239 27.3 203 13.7 185L0 167Z" fill="#0066ff"></path><path d="M0 469L13.7 475C27.3 481 54.7 493 82 500C109.3 507 136.7 509 163.8 512C191 515 218 519 245.2 508C272.3 497 299.7 471 327 472C354.3 473 381.7 501 409 517C436.3 533 463.7 537 491 526C518.3 515 545.7 489 573 479C600.3 469 627.7 475 654.8 483C682 491 709 501 736.2 503C763.3 505 790.7 499 818 487C845.3 475 872.7 457 886.3 448L900 439L900 371L886.3 370C872.7 369 845.3 367 818 378C790.7 389 763.3 413 736.2 412C709 411 682 385 654.8 380C627.7 375 600.3 391 573 412C545.7 433 518.3 459 491 462C463.7 465 436.3 445 409 431C381.7 417 354.3 409 327 407C299.7 405 272.3 409 245.2 409C218 409 191 405 163.8 405C136.7 405 109.3 409 82 408C54.7 407 27.3 401 13.7 398L0 395Z" fill="#0059dd"></path><path d="M0 601L13.7 601C27.3 601 54.7 601 82 601C109.3 601 136.7 601 163.8 601C191 601 218 601 245.2 601C272.3 601 299.7 601 327 601C354.3 601 381.7 601 409 601C436.3 601 463.7 601 491 601C518.3 601 545.7 601 573 601C600.3 601 627.7 601 654.8 601C682 601 709 601 736.2 601C763.3 601 790.7 601 818 601C845.3 601 872.7 601 886.3 601L900 601L900 437L886.3 446C872.7 455 845.3 473 818 485C790.7 497 763.3 503 736.2 501C709 499 682 489 654.8 481C627.7 473 600.3 467 573 477C545.7 487 518.3 513 491 524C463.7 535 436.3 531 409 515C381.7 499 354.3 471 327 470C299.7 469 272.3 495 245.2 506C218 517 191 513 163.8 510C136.7 507 109.3 505 82 498C54.7 491 27.3 479 13.7 473L0 467Z" fill="#004cbb"></path></svg>