<svg id="visual" viewBox="0 0 900 600" width="900" height="600" xmlns="http://www.w3.org/2000/svg" xmlns:xlink="http://www.w3.org/1999/xlink" version="1.1"><rect x="0" y="0" width="900" height="600" fill="#599ad4"></rect><defs><linearGradient id="grad1_0" x1="33.3%" y1="100%" x2="100%" y2="0%"><stop offset="20%" stop-color="#599ad4" stop-opacity="1"></stop><stop offset="80%" stop-color="#599ad4" stop-opacity="1"></stop></linearGradient></defs><defs><linearGradient id="grad2_0" x1="0%" y1="100%" x2="66.7%" y2="0%"><stop offset="20%" stop-color="#599ad4" stop-opacity="1"></stop><stop offset="80%" stop-color="#599ad4" stop-opacity="1"></stop></linearGradient></defs><g transform="translate(900, 600)"><path d="M-486.7 0C-482.8 -65.3 -478.9 -130.7 -449.7 -186.3C-420.5 -241.9 -365.9 -287.7 -311.1 -311.1C-256.4 -334.6 -201.5 -335.7 -149.6 -361.2C-97.8 -386.8 -48.9 -436.8 0 -486.7L0 0Z" fill="#FBAE3C"></path></g><g transform="translate(0, 0)"><path d="M486.7 0C440.9 47.7 395.1 95.4 377.9 156.5C360.7 217.6 372.2 292 344.2 344.2C316.2 396.3 248.8 426.2 184.8 446.2C120.9 466.3 60.4 476.5 0 486.7L0 0Z" fill="#FBAE3C"></path></g></svg>