<svg xmlns="http://www.w3.org/2000/svg" version="1.1" xmlns:xlink="http://www.w3.org/1999/xlink" xmlns:svgjs="http://svgjs.com/svgjs" width="1440" height="560" preserveAspectRatio="none" viewBox="0 0 1440 560"><g mask="url(&quot;#SvgjsMask1004&quot;)" fill="none"><rect width="1440" height="560" x="0" y="0" fill="url(#SvgjsLinearGradient1005)"></rect><path d="M1440 0L1371.39 0L1440 197.26z" fill="rgba(255, 255, 255, .1)"></path><path d="M1371.39 0L1440 197.26L1440 207.44L825.6600000000001 0z" fill="rgba(255, 255, 255, .075)"></path><path d="M825.66 0L1440 207.44L1440 417.71000000000004L656.71 0z" fill="rgba(255, 255, 255, .05)"></path><path d="M656.71 0L1440 417.71000000000004L1440 516.33L466.69000000000005 0z" fill="rgba(255, 255, 255, .025)"></path><path d="M0 560L666.35 560L0 370.08000000000004z" fill="rgba(0, 0, 0, .1)"></path><path d="M0 370.08000000000004L666.35 560L708.15 560L0 204.52000000000004z" fill="rgba(0, 0, 0, .075)"></path><path d="M0 204.51999999999998L708.15 560L742.47 560L0 121.84999999999998z" fill="rgba(0, 0, 0, .05)"></path><path d="M0 121.84999999999997L742.47 560L1212.46 560L0 35.82999999999997z" fill="rgba(0, 0, 0, .025)"></path></g><defs><mask id="SvgjsMask1004"><rect width="1440" height="560" fill="#ffffff"></rect></mask><linearGradient x1="15.28%" y1="-39.29%" x2="84.72%" y2="139.29%" gradientUnits="userSpaceOnUse" id="SvgjsLinearGradient1005"><stop stop-color="#0e2a47" offset="0"></stop><stop stop-color="rgba(89, 154, 212, 1)" offset="1"></stop></linearGradient></defs></svg>